<svg width="1622" height="1608" viewBox="0 0 1622 1608" fill="none" xmlns="http://www.w3.org/2000/svg">
<path fill-rule="evenodd" clip-rule="evenodd" d="M810.923 0L13.0369 534.791L345.134 750.438L741.922 483.032L584.53 379.646L800.116 235.207L1267.93 545.649L500.451 1060.89L666.454 1170.83L1621.48 534.872L1619.32 532.717L810.923 0ZM1606.59 0.222632L1274.61 220.12L1440.6 332.218L1606.59 220.12V0.222632ZM7.5625 1607.99L339.558 1388.1L173.565 1275.99L7.5625 1388.1V1607.99Z" fill="#33348E"/>
<path fill-rule="evenodd" clip-rule="evenodd" d="M810.566 1607.53L1608.44 1072.73L1276.36 857.082L879.577 1124.49L1036.95 1227.87L821.373 1372.32L353.559 1061.87L1121.03 546.64L955.035 436.687L0 1072.65L2.15535 1074.82L810.566 1607.53Z" fill="#33348E"/>
</svg>
