<svg width="1602" height="1608" viewBox="0 0 1602 1608" fill="none" xmlns="http://www.w3.org/2000/svg">
<path fill-rule="evenodd" clip-rule="evenodd" d="M0.208484 1.64008L1191.25 0.827703C1375.03 -9.88032 1611.75 81.1087 1601.5 402.576L1600.73 1607.88H370.579C125.499 1601.04 -6.00242 1455.53 0.210497 1244.09L0.208484 1.64008Z" fill="#E5143C"/>
<path fill-rule="evenodd" clip-rule="evenodd" d="M718.19 1394.14H638.281V984.398H718.19V1394.14Z" fill="white"/>
<path fill-rule="evenodd" clip-rule="evenodd" d="M921.77 1394.13H790.898V831.738H921.77V1394.13Z" fill="white"/>
<path fill-rule="evenodd" clip-rule="evenodd" d="M566.562 440.022C566.562 440.022 698.607 311.04 920.954 353.442C920.954 353.442 1018.87 368.674 1093.88 435.326C1093.88 435.326 1105.05 445.805 1113.58 437.274C1113.58 437.274 1124.49 428.685 1112.44 415.915C1112.44 415.915 1047.88 326.387 920.611 286.819C920.611 286.819 745.677 224.231 565.932 308.835C565.932 308.835 455.388 354.76 394.004 479.619C394.004 479.619 306.594 507.964 241.058 544.64C241.058 544.64 221.618 552.374 228.976 567.43C228.976 567.43 235.246 578.196 252.224 570.149C252.224 570.149 313.036 549.104 371.786 536.078C371.786 536.078 324.574 658.503 373.906 810.561C395.78 878.245 435.777 947.044 497.018 1002.42C497.018 1002.42 506.953 1012.9 517.833 1005.74C517.833 1005.74 527.223 998.919 520.581 987.756C520.581 987.756 471.823 914.232 452.869 809.786C437.094 724.667 444.509 607.022 503.603 513.829C503.603 513.829 728.67 482.365 920.497 554.685C920.497 554.685 1246.4 661.049 1164.35 858.316C1164.35 858.316 1140.5 926.973 1050.57 988.96C1050.57 988.96 1035.48 997.691 1043.75 1010.32C1043.75 1010.32 1050.48 1020.08 1065.88 1013.86C1065.88 1013.84 1203.63 968.999 1263.09 858.255C1263.09 858.255 1383.72 673.644 1099.33 522.959C1099.33 522.959 1021.11 481.13 920.612 458.711C920.612 458.711 739.464 414.019 566.563 440.015" fill="white"/>
</svg>
