<svg width="8747" height="1718" viewBox="0 0 8747 1718" fill="none" xmlns="http://www.w3.org/2000/svg">
<path d="M4265.31 784.499C4393.32 722.973 4470.75 596.509 4470.75 443.205C4470.75 328.819 4433.68 235.183 4361.12 164.981C4290.5 91.8878 4197.38 54.8331 4084.65 54.8331H3620.6C3616.58 54.8331 3613.37 58.1365 3613.37 62.1646V1655.7C3613.37 1659.83 3616.58 1663.04 3620.6 1663.04H4147.31C4269.13 1663.04 4372.67 1619.99 4455.26 1535.13C4538.37 1449.54 4580.49 1345.38 4580.49 1225.41C4580.49 1008.42 4458.46 840.665 4265.31 784.499ZM3672.73 114.292H4084.65C4276.97 114.292 4411.38 249.425 4411.38 443.205C4411.38 536.522 4380.42 614.678 4319.4 675.687C4259.94 735.148 4180.97 765.398 4084.65 765.398H3672.73V114.292ZM4411.08 1494.14C4340.46 1566.82 4251.68 1603.67 4147.31 1603.67H3672.73V824.756H4127.18C4242.91 824.756 4335.92 861.413 4411.28 936.871C4484.27 1009.76 4521.12 1106.91 4521.12 1225.41C4521.12 1332.17 4485.1 1419.92 4411.08 1494.14Z" fill="black"/>
<path d="M1095.85 1148.51C1039.18 1197.23 973.416 1221.6 898.67 1221.6C802.657 1221.6 724.928 1188.15 665.261 1121.35C605.48 1054.46 575.65 967.015 575.65 858.928C575.65 750.223 605.376 662.372 664.64 595.475C723.893 528.682 801.934 495.123 898.67 495.123C968.975 495.123 1032.46 517.318 1089.04 561.503C1145.71 605.688 1185.77 664.021 1209.2 736.588H1761.1C1732.4 516.698 1638.66 339.03 1480.09 203.377C1321.42 67.725 1126.82 0.000366211 896.397 0.000366211C725.649 0.000366211 571.934 36.7632 435.146 110.477C298.46 184.076 191.716 286.492 115.007 417.496C38.3089 548.604 0 695.813 0 858.928C0 1022.15 38.3089 1169.25 115.007 1300.36C191.716 1431.47 298.46 1533.78 435.146 1607.49C571.934 1681.2 725.649 1717.94 896.397 1717.94C1130.64 1717.94 1327.82 1647.64 1487.94 1507.25C1648.16 1366.64 1741.07 1183.08 1766.78 956.387H1206.93C1189.59 1035.77 1152.53 1099.78 1095.85 1148.51Z" fill="black"/>
<path d="M3082.78 701.835C2973.97 599.429 2833.67 548.322 2661.69 548.322C2644.04 548.322 2620.09 549.149 2589.73 550.698L2894.17 54.8572L2350.43 54.958L2093.06 475.127C2020.29 594.264 1966.5 704.001 1931.71 804.444C1896.92 904.794 1879.47 1004.62 1879.47 1103.73C1879.47 1285.32 1942.86 1433.05 2069.63 1547.03C2196.41 1661 2360.96 1717.98 2563.3 1717.98C2768.02 1717.98 2932.99 1661.2 3058.21 1547.64C3183.33 1434.08 3246 1284.5 3246 1098.98C3246 936.589 3191.59 804.24 3082.78 701.835ZM2715.67 1251.25C2676.45 1290.49 2625.75 1310.1 2563.3 1310.1C2500.95 1310.1 2450.15 1290.49 2411.03 1251.25C2371.8 1212.13 2352.19 1161.33 2352.19 1098.98C2352.19 1036.53 2371.8 985.421 2411.03 945.368C2450.15 905.418 2500.95 885.392 2563.3 885.392C2625.75 885.392 2676.45 905.418 2715.67 945.368C2754.81 985.421 2774.42 1036.53 2774.42 1098.98C2774.42 1161.33 2754.81 1212.13 2715.67 1251.25Z" fill="black"/>
<path d="M8745.62 1651.56L8127.34 785.008L8743.35 66.8973C8744.38 65.6682 8745 64.0159 8745 62.1567C8745 58.1287 8741.8 54.8253 8737.77 54.8253H8679.66C8677.49 54.8253 8675.42 55.8582 8674.18 57.5107L7827.24 1044.65V62.1567C7827.24 58.1287 7824.03 54.8253 7820.01 54.8253H7776.03C7772 54.8253 7768.81 58.1287 7768.81 62.1567V1655.8C7768.81 1659.83 7772 1663.03 7776.03 1663.03H7820.01C7824.03 1663.03 7827.24 1659.83 7827.24 1655.8V1133.12L8088 832.086L8678.41 1659.94C8679.65 1661.8 8681.92 1663.03 8684.4 1663.03H8739.63C8743.66 1663.03 8746.97 1659.83 8746.97 1655.8C8746.97 1654.15 8746.45 1652.7 8745.62 1651.56Z" fill="black"/>
<path d="M7398.11 54.8414H7353.31C7349.28 54.8414 7346.08 58.1511 7346.08 62.1792V1521.1L6291.54 57.8357C6290.3 56.08 6288.13 54.8414 6285.75 54.8414H6257.26C6253.24 54.8414 6250.04 58.1511 6250.04 62.1792V1655.72C6250.04 1659.74 6253.24 1663.05 6257.26 1663.05H6302.06C6306.09 1663.05 6309.39 1659.74 6309.39 1655.72V185.433L7372.1 1660.05C7373.44 1661.91 7375.51 1663.05 7377.99 1663.05H7398.11C7402.24 1663.05 7405.45 1659.74 7405.45 1655.72V62.1792C7405.45 58.1511 7402.24 54.8414 7398.11 54.8414Z" fill="black"/>
<path d="M5985.68 1653.22L5381.34 59.58C5380.41 56.8945 5377.62 54.8331 5374.52 54.8331H5346.23C5343.03 54.8331 5340.46 56.7937 5339.32 59.4791L4734.98 1653.12C4734.67 1653.95 4734.57 1654.88 4734.57 1655.7C4734.57 1659.73 4737.77 1663.04 4741.79 1663.04H4788.35C4791.55 1663.04 4794.13 1661.07 4795.27 1658.39L4981.3 1165.44H5739.46L5925.49 1658.19C5926.52 1661.08 5929.21 1663.04 5932.31 1663.04H5978.86C5982.89 1663.04 5986.2 1659.73 5986.2 1655.7C5986.2 1654.88 5985.99 1653.95 5985.68 1653.22ZM5002.88 1106.08L5360.28 169.527L5717.78 1106.08H5002.88Z" fill="black"/>
</svg>
