<svg width="7332" height="1664" viewBox="0 0 7332 1664" fill="none" xmlns="http://www.w3.org/2000/svg">
<path fill-rule="evenodd" clip-rule="evenodd" d="M2242.6 551.931L2052.74 1025.76H2315.42L2243.45 549.921L2242.6 551.931ZM1236.82 1639.54L2015.68 33.7595H2604.37L2932.82 1639.54H2415.79L2377.8 1425.58H1876.25L1760.85 1639.54H1236.82ZM3177.49 1639.54L3403.12 33.7595H3924.03L3698.44 1639.54H3177.49ZM6641.78 549.921L6451.16 1025.76H6713.84L6641.78 549.921ZM5635.19 1639.54L6414.06 33.7595H7002.7L7331.11 1639.54H6814.13L6776.13 1425.58H6274.58L6159.18 1639.54H5635.19ZM4483.68 888.7H5136.31L5583.56 1630.57H4930.79L4483.68 888.7Z" fill="#0D6FAB"/>
<path fill-rule="evenodd" clip-rule="evenodd" d="M4551.5 774.731H5226.12L5811.99 36.0813H5137.38L4551.5 774.731ZM3876.89 1635.08H4551.5L5137.38 887.315H4462.77L3876.89 1635.08Z" fill="#DB8135"/>
<path fill-rule="evenodd" clip-rule="evenodd" d="M4120.13 27.0607H4749.79L5181.16 774.731H4551.5L4120.13 27.0607ZM1252.28 91.2797L1202.16 563.542C1010.15 298.316 565.229 481.326 530.27 811.753C485.858 1231.18 914.107 1329.03 1147.18 1082.03L1096.93 1555.4C1027.37 1589.7 959.366 1616.18 892.257 1634.18C826.976 1651.88 759.794 1661.6 692.179 1663.12C608.705 1664.86 533.124 1656.06 464.945 1636.86C398.489 1618.78 335.977 1588.46 280.607 1547.46C175.373 1470.42 99.3017 1372.48 52.3923 1253.25C5.57214 1133.65 -9.90079 998.738 6.10726 847.926C18.9494 726.768 49.4939 616.239 98.0531 516.025C146.211 415.812 212.919 324.843 297.864 242.314C378.172 163.581 465.614 104.23 560.28 63.8591C654.5 23.8899 757.415 2.54338 868.624 0.22114C934.19 -1.36017 999.685 5.5445 1063.49 20.764C1127.03 35.9925 1189.72 59.7508 1252.28 91.2797Z" fill="#0D6FAB"/>
</svg>
