<svg width="4782" height="1719" viewBox="0 0 4782 1719" fill="none" xmlns="http://www.w3.org/2000/svg">
<path d="M1550.64 277.584C1507.57 277.584 1469.28 244.083 1469.28 201.009C1469.28 201.009 1469.28 201.01 1469.28 196.223C1469.28 153.15 1502.78 114.863 1550.64 114.863C1598.5 114.863 1632 153.15 1632 196.223C1632 244.083 1598.5 277.584 1550.64 277.584ZM1550.64 95.719C1488.42 95.719 1445.35 143.578 1445.35 196.223C1445.35 248.869 1488.42 296.728 1550.64 296.728C1612.86 296.728 1655.93 248.869 1655.93 196.223C1655.93 143.578 1612.86 95.719 1550.64 95.719ZM1263.49 248.869L1277.84 263.226C1258.7 282.37 1234.77 296.728 1196.48 296.728C1139.05 296.728 1091.19 253.655 1091.19 196.223C1091.19 138.792 1134.27 95.719 1196.48 95.719C1234.77 95.719 1253.91 110.077 1277.84 124.435L1263.49 138.792C1244.34 129.22 1225.2 119.649 1196.48 119.649C1148.62 119.649 1115.12 153.15 1115.12 201.009C1115.12 248.869 1148.62 282.37 1196.48 282.37C1225.2 277.584 1244.34 268.012 1263.49 248.869ZM880.611 100.505H904.541V296.728H885.397L751.391 138.792V296.728H727.461V100.505H751.391L880.611 258.441V100.505ZM392.446 224.939L440.305 124.435L488.165 224.939H392.446ZM430.734 100.505L335.015 296.728H358.945L382.874 244.083H492.95L516.88 296.728H540.81L445.091 100.505C449.877 100.505 430.734 100.505 430.734 100.505ZM90.9325 277.584H23.9294V205.795H90.9325C124.434 205.795 143.578 220.153 143.578 239.297C143.578 263.226 124.434 277.584 90.9325 277.584ZM23.9294 119.649H86.1463C114.862 119.649 134.006 134.007 134.006 153.15C134.006 177.08 114.862 186.652 86.1463 186.652H23.9294V119.649ZM119.648 196.223C138.792 186.652 153.149 177.08 153.149 148.364C153.149 119.649 124.434 100.505 86.1463 100.505H0V296.728H90.9325C134.006 296.728 167.507 277.585 167.507 244.083C167.507 215.367 148.364 201.01 119.648 196.223Z" fill="#9C9B9B"/>
<path d="M2215.89 0V492.951H2617.9V794.464H2215.89V1253.91C2215.89 1354.42 2263.75 1397.49 2359.46 1407.06C2469.54 1421.42 2555.69 1373.56 2617.9 1344.85L2627.48 1340.06L2751.91 1608.07L2747.12 1612.86C2584.4 1694.22 2483.9 1718.15 2359.46 1718.15C2057.95 1718.15 1895.23 1550.64 1895.23 1249.13V167.508L2215.89 0ZM4034.54 526.452H4029.75V1679.86H4350.41V780.107C4388.7 775.321 4426.99 770.534 4503.56 770.534C4580.14 770.534 4627.99 780.107 4680.64 794.464H4685.43L4781.14 497.737H4771.57C4675.85 473.807 4599.28 464.235 4474.84 464.235C4355.2 464.235 4168.54 478.593 4034.54 526.452ZM2751.91 1100.76C2751.91 703.532 2933.77 464.235 3302.29 464.235C3666.02 464.235 3862.25 665.244 3862.25 1062.48L3321.44 1325.7L3182.64 1062.48L3527.23 885.397C3532.02 808.822 3431.51 760.963 3307.08 765.749C3163.5 775.321 3082.14 842.324 3082.14 1086.41C3082.14 1325.7 3197 1407.06 3369.29 1407.06C3522.44 1407.06 3670.81 1383.13 3747.38 1359.2H3752.17L3847.89 1646.36H3843.1C3713.88 1689.43 3541.59 1708.58 3369.29 1708.58C2962.49 1708.58 2751.91 1502.78 2751.91 1100.76ZM622.171 526.452H617.385V1679.86H938.042V780.107C995.473 770.535 1038.55 770.534 1124.69 770.534C1282.63 770.534 1359.2 837.538 1359.2 971.543V1684.65H1679.86V990.687C1679.86 660.458 1478.85 464.235 1148.62 464.235C957.186 464.235 741.819 488.165 622.171 526.452ZM0 1679.86H320.657V492.951H0V1679.86Z" fill="url(#paint0_linear_106_46)"/>
<defs>
<linearGradient id="paint0_linear_106_46" x1="-142.647" y1="858.02" x2="4784.13" y2="858.02" gradientUnits="userSpaceOnUse">
<stop stop-color="#FF8700"/>
<stop offset="1" stop-color="#FF500F"/>
</linearGradient>
</defs>
</svg>
