<svg width="1608" height="1608" viewBox="0 0 1608 1608" fill="none" xmlns="http://www.w3.org/2000/svg">
<path fill-rule="evenodd" clip-rule="evenodd" d="M294.329 0.00206126L1316.08 0.605922C1476.46 0.605922 1608.61 132.751 1608 293.734V1315.47C1608 1476.46 1475.85 1608 1314.88 1608L292.526 1607.4C131.542 1606.81 0 1475.27 0 1314.28L1.19858 292.527C1.19858 131.552 132.749 -0.601799 294.329 0.00206126Z" fill="#33348E"/>
<path fill-rule="evenodd" clip-rule="evenodd" d="M1381.86 734.692H1265.21L1217.1 826.16H1298.87L1381.86 734.692ZM1459.43 883.339H1345.78V1128.85C1345.78 1204.08 1295.26 1225.74 1258 1225.74C1222.51 1225.74 1183.41 1212.49 1184.03 1146.89V883.329H1070.38L1069.78 1163.14C1069.78 1271.45 1131.73 1319.59 1217.11 1319.59C1276.63 1320.2 1322.94 1294.31 1348.79 1248.59H1349.99V1308.17H1459.43V883.339H1459.43ZM981.372 995.853C981.372 890.552 870.748 871.899 809.409 871.899C721.013 871.899 629.01 890.552 615.179 1020.53H725.218C728.826 995.862 739.048 961.553 795.569 961.553C825.034 961.553 870.748 963.973 870.748 1010.91C870.748 1034.97 848.491 1042.21 830.447 1044.61L728.231 1059.65C655.471 1069.89 601.358 1112.6 601.358 1195.66C601.358 1283.5 668.706 1319.61 733.04 1319.61C811.213 1319.61 847.886 1284.11 873.147 1258.24C875.547 1281.72 877.351 1287.73 883.973 1308.19L981.986 1307.58C981.986 1260.64 981.381 1226.34 981.381 1225.75V995.853H981.372ZM496.724 734.692H383.077V882.725H324.147V962.763H382.472V1220.92C382.472 1275.67 399.911 1312.99 498.528 1312.99H513.568C531.602 1312.99 549.636 1311.77 567.085 1311.18V1226.33C559.263 1226.93 550.854 1228.13 543.628 1228.13C497.328 1228.13 496.119 1218.5 496.119 1193.22L496.724 962.754H567.68V882.715H496.724V734.692ZM271.839 734.087H149.17L148.565 1307.57H271.234L271.839 734.087Z" fill="#FFF22D"/>
<path fill-rule="evenodd" clip-rule="evenodd" d="M873.914 1156.44V1101.13C862.324 1110.24 842.804 1117.53 795.257 1124.23C751.972 1131.51 716.609 1142.46 716.609 1189.28C716.609 1228.19 748.314 1240.96 770.258 1240.96C821.482 1240.97 873.914 1208.74 873.914 1156.44Z" fill="#33348E"/>
</svg>
