<svg width="2939" height="1608" viewBox="0 0 2939 1608" fill="none" xmlns="http://www.w3.org/2000/svg">
<path d="M891.432 0C746.747 0 623.909 56.6659 531.012 153.297H530.767C524.142 153.027 517.615 153.052 510.929 153.052C321.902 153.052 144.472 261.229 57.9555 429.268C20.1403 502.684 6.10659 581.609 1.74707 661.943C-2.18384 734.061 1.74707 807.196 1.74707 878.616V1570.69H389.903C389.903 1570.69 390.173 1229.81 389.903 936.727C389.732 739.449 388.458 563.635 389.903 527.552C396.761 356.905 443.442 245.287 530.535 154.007C819.353 154.227 1006.31 351.028 1016.76 664.343C1019.16 736.265 1019.87 1121.1 1019.87 1121.1V1570.7H1407.79V962.782C1407.79 779.034 1409.34 619.872 1396.55 510.336C1360.79 204.232 1173.55 0 891.432 0ZM1918.89 36.8304L1531.19 37.3079V645.206C1531.19 828.978 1529.64 988.128 1542.45 1097.66C1578.22 1403.78 1765.44 1608 2047.56 1608C2192.25 1608 2315.08 1551.33 2407.98 1454.7C2408.02 1454.67 2408.18 1454.75 2408.23 1454.7C2414.86 1454.98 2421.61 1454.95 2428.31 1454.95C2617.32 1454.95 2794.52 1346.77 2881.05 1178.74C2918.87 1105.32 2932.89 1026.4 2937.26 946.057C2941.18 873.951 2937.26 800.817 2937.26 729.396V37.3079H2549.09C2549.09 37.3079 2548.82 378.185 2549.09 671.273C2549.27 868.563 2550.55 1044.35 2549.09 1080.45C2542.23 1251.07 2495.55 1362.71 2408.47 1453.99C2119.64 1453.77 1932.68 1256.97 1922.24 943.657C1919.84 871.735 1918.89 693.423 1918.89 486.656V36.8304Z" fill="black"/>
</svg>
