<svg width="1900" height="1719" viewBox="0 0 1900 1719" fill="none" xmlns="http://www.w3.org/2000/svg">
<path d="M977.609 0C928.922 23.2156 876.672 105.094 876.672 218.975C876.672 523.094 1221.73 671.294 1221.73 937.828C1221.73 937.828 1222.83 1095.97 1136.59 1129.16V1066.14C1136.59 873.703 762.82 637.034 762.82 425.778V342.831C714.133 366.047 661.883 450.122 661.883 562.905C661.883 853.753 1006.94 985.358 1006.94 1281.76C1006.94 1281.76 1006.94 1405.61 930.644 1445.43C932.87 1438.78 932.87 1431.06 932.87 1424.41C932.87 1411.14 930.644 1400.06 930.644 1400.06C922.925 1264.03 568.991 925.656 568.991 819.434C257.688 904.667 0 1060.59 0 1253.02C0 1510.71 422.453 1717.21 942.281 1717.21C945.606 1717.21 947.803 1719.44 951.128 1717.21C1476.42 1716.41 1900 1501.86 1900 1243.1C1900 1050.67 1662.2 885.875 1326.02 816.198C1335.97 790.756 1335.97 768.639 1335.97 768.639C1335.97 527.577 977.639 293.045 977.639 82.9469L977.609 0Z" fill="#FE0000"/>
</svg>
