<svg width="32" height="32" viewBox="0 0 32 32" fill="none" xmlns="http://www.w3.org/2000/svg">
<path d="M16.0059 19.91L16 20.41L15.994 19.91C14.8078 19.9241 13.6641 19.4693 12.8117 18.6445L7.18022 12.9533C7.10453 12.8594 7.06522 12.7411 7.06989 12.6202C7.07475 12.4944 7.12692 12.375 7.21597 12.286C7.30501 12.1969 7.42438 12.1448 7.55022 12.1399C7.67072 12.1352 7.78865 12.1743 7.88243 12.2495L13.5264 17.8935L13.5263 17.8937L13.5358 17.9027C14.201 18.5339 15.083 18.8857 16 18.8857C16.9169 18.8857 17.799 18.5339 18.4641 17.9027L18.4643 17.9028L18.4735 17.8935L24.1175 12.2495C24.2113 12.1743 24.3292 12.1352 24.4497 12.1399C24.5756 12.1448 24.6949 12.1969 24.784 12.286C24.873 12.375 24.9252 12.4944 24.9301 12.6202C24.9347 12.7411 24.8954 12.8594 24.8197 12.9533L19.1883 18.6445C18.3358 19.4693 17.1921 19.9241 16.0059 19.91Z" fill="black" stroke="#91919F"/>
</svg>
