<svg width="56" height="56" viewBox="0 0 56 56" fill="none" xmlns="http://www.w3.org/2000/svg">
<circle cx="28" cy="28" r="28" fill="#0077FF"/>
<path d="M22 40C25.3137 40 28 37.3137 28 34C28 30.6863 25.3137 28 22 28C18.6863 28 16 30.6863 16 34C16 37.3137 18.6863 40 22 40Z" fill="#FCFCFC"/>
<path d="M34 28C37.3137 28 40 25.3137 40 22C40 18.6863 37.3137 16 34 16C30.6863 16 28 18.6863 28 22C28 25.3137 30.6863 28 34 28Z" fill="#FCFCFC"/>
<path d="M18.16 26C18.2559 26.0359 18.3578 26.0529 18.46 26.05C18.6806 26.0601 18.8983 25.9969 19.0792 25.8703C19.2601 25.7437 19.394 25.5607 19.46 25.35C19.82 24.1997 20.4073 23.1334 21.1872 22.2143C21.9671 21.2953 22.9236 20.5423 24 20V21C24 21.2652 24.1054 21.5196 24.2929 21.7071C24.4805 21.8946 24.7348 22 25 22C25.2653 22 25.5196 21.8946 25.7072 21.7071C25.8947 21.5196 26 21.2652 26 21V17C26 16.7348 25.8947 16.4804 25.7072 16.2929C25.5196 16.1054 25.2653 16 25 16H21C20.7348 16 20.4805 16.1054 20.2929 16.2929C20.1054 16.4804 20 16.7348 20 17C20 17.2652 20.1054 17.5196 20.2929 17.7071C20.4805 17.8946 20.7348 18 21 18H23.42C22.0192 18.6401 20.7684 19.5673 19.7486 20.7214C18.7288 21.8756 17.9628 23.231 17.5 24.7C17.4536 24.8285 17.4339 24.9651 17.4423 25.1014C17.4507 25.2378 17.4869 25.371 17.5488 25.4928C17.6106 25.6146 17.6968 25.7225 17.8019 25.8097C17.907 25.8969 18.0289 25.9617 18.16 26Z" fill="#FCFCFC"/>
<path d="M31 34C30.7348 34 30.4804 34.1054 30.2929 34.2929C30.1054 34.4805 30 34.7348 30 35V39C30 39.2652 30.1054 39.5196 30.2929 39.7071C30.4804 39.8947 30.7348 40 31 40H35C35.2652 40 35.5196 39.8947 35.7071 39.7071C35.8946 39.5196 36 39.2652 36 39C36 38.7348 35.8946 38.4805 35.7071 38.2929C35.5196 38.1054 35.2652 38 35 38H32.57C34.1462 37.2808 35.5303 36.1994 36.6095 34.844C37.6886 33.4885 38.4323 31.8974 38.78 30.2C38.8063 30.0687 38.8064 29.9335 38.7804 29.8021C38.7544 29.6707 38.7028 29.5458 38.6285 29.4343C38.5542 29.3229 38.4587 29.2272 38.3475 29.1527C38.2362 29.0782 38.1113 29.0263 37.98 29C37.8487 28.9738 37.7135 28.9736 37.5821 28.9996C37.4507 29.0256 37.3257 29.0772 37.2143 29.1515C37.1029 29.2258 37.0072 29.3213 36.9327 29.4326C36.8581 29.5438 36.8063 29.6687 36.78 29.8C36.5085 31.1358 35.9372 32.3924 35.1092 33.4751C34.2812 34.5578 33.218 35.4382 32 36.05V35C32 34.7348 31.8946 34.4805 31.7071 34.2929C31.5196 34.1054 31.2652 34 31 34Z" fill="#FCFCFC"/>
</svg>
